<svg aria-hidden="true" style="position: absolute; width: 0; height: 0; overflow: hidden;" version="1.1" xmlns="http://www.w3.org/2000/svg" xmlns:xlink="http://www.w3.org/1999/xlink">
<defs>
<symbol id="icon-arrow" viewBox="0 0 16 32">
<path d="M0.336 0.336c0.106-0.106 0.232-0.191 0.371-0.248s0.288-0.087 0.438-0.087c0.15 0 0.299 0.030 0.438 0.087s0.265 0.142 0.371 0.248l13.711 13.711c0.106 0.106 0.191 0.232 0.248 0.371s0.087 0.288 0.087 0.438c0 0.15-0.030 0.299-0.087 0.438s-0.142 0.265-0.248 0.371l-13.711 13.711c-0.215 0.214-0.506 0.335-0.809 0.335s-0.594-0.121-0.809-0.335c-0.215-0.215-0.335-0.506-0.335-0.809s0.121-0.594 0.335-0.809l12.904-12.902-12.904-12.902c-0.106-0.106-0.191-0.232-0.248-0.371s-0.087-0.288-0.087-0.438c0-0.15 0.030-0.299 0.087-0.438s0.142-0.265 0.248-0.371z"></path>
</symbol>
<symbol id="icon-search" viewBox="0 0 28 32">
<path d="M10.459 0c2.774 0 5.434 1.217 7.396 3.385s3.063 5.106 3.063 8.171c0 2.862-0.949 5.493-2.51 7.52l0.434 0.48h1.271l8.045 8.889-2.413 2.667-8.046-8.889v-1.404l-0.434-0.48c-1.898 1.79-4.311 2.773-6.806 2.773-2.774 0-5.434-1.217-7.396-3.385s-3.063-5.106-3.063-8.171c0-3.065 1.102-6.004 3.063-8.171s4.622-3.385 7.396-3.385zM10.459 3.556c-4.023 0-7.241 3.556-7.241 8s3.218 8 7.241 8c4.023 0 7.241-3.556 7.241-8s-3.218-8-7.241-8z"></path>
</symbol>
<symbol id="icon-phone" viewBox="0 0 32 32">
<path d="M22 20c-2 2-2 4-4 4s-4-2-6-4-4-4-4-6 2-2 4-4-4-8-6-8-6 6-6 6c0 4 4.109 12.109 8 16s12 8 16 8c0 0 6-4 6-6s-6-8-8-6z"></path>
</symbol>
<symbol id="icon-envelop" viewBox="0 0 32 32">
<path d="M29 4h-26c-1.65 0-3 1.35-3 3v20c0 1.65 1.35 3 3 3h26c1.65 0 3-1.35 3-3v-20c0-1.65-1.35-3-3-3zM12.461 17.199l-8.461 6.59v-15.676l8.461 9.086zM5.512 8h20.976l-10.488 7.875-10.488-7.875zM12.79 17.553l3.21 3.447 3.21-3.447 6.58 8.447h-19.579l6.58-8.447zM19.539 17.199l8.461-9.086v15.676l-8.461-6.59z"></path>
</symbol>
<symbol id="icon-menu" viewBox="0 0 32 32">
<path d="M2 6h28v6h-28zM2 14h28v6h-28zM2 22h28v6h-28z"></path>
</symbol>
</defs>
</svg>
